<svg width="50" height="50" viewBox="0 0 50 50" fill="none" xmlns="http://www.w3.org/2000/svg">
<path d="M41.9798 26.9499C41.9798 26.1407 41.9798 25.3314 41.9798 24.5222L39.5899 24.9268C39.5899 25.736 39.5899 26.5453 39.5899 26.9499H41.9798ZM41.5815 22.0943C41.1832 20.4759 40.3865 18.8573 39.5899 17.6434L37.5984 18.8573C37.9967 20.0712 38.7933 21.2851 39.1916 22.9036L41.5815 22.0943ZM38.395 15.6203C37.2001 14.4063 36.0052 13.1925 34.8102 11.9786L33.217 14.0018C34.4119 14.811 35.2086 16.0249 36.4035 17.2388L38.395 15.6203ZM32.8187 10.7647C31.2255 9.95546 29.6323 9.14619 28.039 8.74151L27.6407 11.1693C28.8356 11.5739 30.4289 11.9786 31.6238 12.7879L32.8187 10.7647ZM25.6492 8.33691C24.8526 8.33691 24.0561 8.33691 23.2594 8.33691V10.7647C24.0561 10.7647 24.8526 10.7647 25.6492 10.7647V8.33691ZM23.2594 8.33691C22.4628 8.33691 21.6662 8.33691 20.8696 8.33691L21.2679 10.7647C22.0645 10.7647 22.4628 10.7647 23.2594 10.7647V8.33691ZM18.4798 8.74151C16.8865 9.14619 15.2933 9.95546 14.0984 10.7647L15.2933 12.7879C16.4882 11.9786 17.6832 11.5739 19.2764 11.1693L18.4798 8.74151ZM12.1069 11.9786C10.5136 13.1925 9.71702 14.4063 8.5221 15.6203L10.5136 17.2388C11.3102 16.0249 12.5052 14.811 13.7001 14.0018L12.1069 11.9786ZM7.3272 17.6434C6.53059 18.8573 5.73398 20.4759 5.33568 22.0943L7.72551 22.9036C8.1238 21.2851 8.5221 20.0712 9.31872 18.8573L7.3272 17.6434ZM4.93737 24.5222C4.93737 25.3314 4.53906 26.1407 4.53906 26.9499H7.3272C7.3272 26.5453 7.3272 25.736 7.3272 24.9268L4.93737 24.5222ZM4.53906 26.9499C4.53906 27.7592 4.93737 28.9731 4.93737 29.7823L7.3272 29.3777C7.3272 28.5684 7.3272 27.7592 7.3272 26.9499H4.53906ZM5.33568 32.2101C5.73398 33.8287 6.53059 35.0426 7.3272 36.6611L9.31872 35.4472C8.5221 34.2333 8.1238 32.6147 7.72551 31.4009L5.33568 32.2101ZM8.5221 38.6842C9.71702 39.8981 10.5136 41.112 12.1069 42.3259L13.7001 40.3028C12.5052 39.4935 11.3102 38.2796 10.5136 37.0657L8.5221 38.6842ZM14.0984 43.5398C15.2933 44.3491 16.8865 45.1584 18.4798 45.563L19.2764 43.1351C17.6832 42.7305 16.4882 41.9213 15.2933 41.5167L14.0984 43.5398ZM20.8696 45.9676C21.6662 45.9676 22.4628 45.9676 23.2594 45.9676V43.5398C22.4628 43.5398 22.0645 43.5398 21.2679 43.5398L20.8696 45.9676ZM23.2594 45.9676C24.0561 45.9676 24.8526 45.9676 25.6492 45.9676V43.5398C24.8526 43.5398 24.0561 43.5398 23.2594 43.5398V45.9676ZM28.039 45.563C29.6323 45.1584 31.2255 44.3491 32.8187 43.5398L31.6238 41.5167C30.4289 41.9213 28.8356 42.7305 27.6407 43.1351L28.039 45.563ZM34.8102 42.3259C36.0052 41.112 37.2001 39.8981 38.395 38.6842L36.4035 37.0657C35.2086 38.2796 34.4119 39.4935 33.217 40.3028L34.8102 42.3259ZM39.5899 36.6611C40.3865 35.0426 41.1832 33.8287 41.5815 32.2101L39.1916 31.4009C38.7933 32.6147 37.9967 34.2333 37.5984 35.4472L39.5899 36.6611ZM41.9798 29.7823C41.9798 28.9731 41.9798 27.7592 41.9798 26.9499H39.5899C39.5899 27.7592 39.5899 28.5684 39.5899 29.3777L41.9798 29.7823Z" fill="#FF9900"/>
<path d="M23.3857 40.5673C30.677 40.5673 36.5795 34.4857 36.5795 26.9732C36.5795 19.8183 30.677 13.7368 23.3857 13.7368C16.4416 13.7368 10.5391 19.8183 10.5391 26.9732C10.5391 34.4857 16.4416 40.5673 23.3857 40.5673Z" fill="#FF9900"/>
<path fill-rule="evenodd" clip-rule="evenodd" d="M42.0567 4.25C42.4962 4.48285 42.8245 4.88097 42.9688 5.35611L46.0113 15.3769C46.3105 16.3623 45.7523 17.4031 44.7645 17.7016C43.7767 18.0001 42.7334 17.4432 42.4342 16.4578L40.7794 11.0075L29.086 35.139C28.7903 35.7493 28.1857 36.1514 27.5073 36.1891C26.8289 36.2267 26.1834 35.8941 25.8215 35.3203L18.3456 23.4639L7.52241 41.7988C6.99868 42.686 5.85314 42.9817 4.96377 42.4592C4.07441 41.9367 3.77801 40.7939 4.30174 39.9067L16.6827 18.933C17.0136 18.3724 17.6135 18.0244 18.2656 18.0149C18.9177 18.0054 19.5276 18.3357 19.8748 18.8863L27.1891 30.4863L37.6268 8.9461L31.9275 10.707C30.9416 11.0116 29.8948 10.4612 29.5895 9.47763C29.2841 8.49408 29.8359 7.44983 30.8218 7.14522L40.6273 4.11568C41.1027 3.96881 41.6172 4.01716 42.0567 4.25Z" fill="#1168F1"/>
</svg>
