<svg width="50" height="50" viewBox="0 0 50 50" fill="none" xmlns="http://www.w3.org/2000/svg">
<path d="M37.2581 45.4076H12.5789C10.0068 45.4076 7.90234 43.3075 7.90234 40.7196V9.30398C7.90234 6.73724 10.0068 4.63721 12.5789 4.63721H37.2581C39.8515 4.63721 41.9347 6.73724 41.9347 9.30398V40.7196C41.9347 43.3075 39.8515 45.4076 37.2581 45.4076Z" fill="#FF9900"/>
<path d="M18.1035 28.4165C17.4021 28.4165 16.8281 27.8437 16.8281 27.1437V22.9012C16.8281 22.2012 17.4021 21.6284 18.1035 21.6284C18.8263 21.6284 19.379 22.2012 19.379 22.9012V27.1437C19.379 27.8437 18.8263 28.4165 18.1035 28.4165Z" fill="#1168F1"/>
<path d="M20.2338 26.295H15.9824C15.281 26.295 14.707 25.7223 14.707 25.0223C14.707 24.3223 15.281 23.7495 15.9824 23.7495H20.2338C20.9565 23.7495 21.5092 24.3223 21.5092 25.0223C21.5092 25.7223 20.9565 26.295 20.2338 26.295Z" fill="#1168F1"/>
<path d="M33.8588 26.7193H29.6074C28.906 26.7193 28.332 26.1466 28.332 25.4466C28.332 24.7466 28.906 24.1738 29.6074 24.1738H33.8588C34.5603 24.1738 35.1342 24.7466 35.1342 25.4466C35.1342 26.1466 34.5603 26.7193 33.8588 26.7193Z" fill="white"/>
<path d="M33.8588 34.3558H29.6074C28.906 34.3558 28.332 33.783 28.332 33.083C28.332 32.383 28.906 31.8103 29.6074 31.8103H33.8588C34.5603 31.8103 35.1342 32.383 35.1342 33.083C35.1342 33.783 34.5603 34.3558 33.8588 34.3558Z" fill="#1168F1"/>
<path d="M33.8588 38.5985H29.6074C28.906 38.5985 28.332 38.0257 28.332 37.3257C28.332 36.6257 28.906 36.053 29.6074 36.053H33.8588C34.5603 36.053 35.1342 36.6257 35.1342 37.3257C35.1342 38.0257 34.5603 38.5985 33.8588 38.5985Z" fill="#1168F1"/>
<path d="M15.9825 38.5983C15.6636 38.5983 15.3447 38.471 15.0897 38.2377C14.5795 37.7286 14.5795 36.9225 15.0897 36.4346L19.3411 32.1921C19.83 31.683 20.659 31.683 21.1479 32.1921C21.6368 32.68 21.6368 33.4861 21.1479 33.974L16.8965 38.2377C16.6414 38.471 16.3226 38.5983 15.9825 38.5983Z" fill="white"/>
<path d="M20.2338 38.5983C19.915 38.5983 19.5962 38.471 19.3411 38.2377L15.0897 33.974C14.5795 33.4861 14.5795 32.68 15.0897 32.1921C15.5786 31.683 16.3863 31.683 16.8965 32.1921L21.1479 36.4346C21.6368 36.9225 21.6368 37.7286 21.1479 38.2377C20.8928 38.471 20.574 38.5983 20.2338 38.5983Z" fill="white"/>
<path d="M33.8609 18.2345H15.9838C14.347 18.2345 13.0078 16.8981 13.0078 15.2435V12.698C13.0078 11.0646 14.347 9.72827 15.9838 9.72827H33.8609C35.4977 9.72827 36.8368 11.0646 36.8368 12.698V15.2435C36.8368 16.8981 35.4977 18.2345 33.8609 18.2345Z" fill="white"/>
<path d="M15.3203 12.9033H34.6752" stroke="#1168F1" stroke-width="1.6129" stroke-miterlimit="22.9256" stroke-linejoin="round" stroke-dasharray="5.65 5.65"/>
<path d="M15.3203 15.3225H34.6752" stroke="#1168F1" stroke-width="1.6129" stroke-miterlimit="22.9256" stroke-linejoin="round" stroke-dasharray="5.65 5.65"/>
</svg>
