<svg width="50" height="50" viewBox="0 0 50 50" fill="none" xmlns="http://www.w3.org/2000/svg">
<path d="M18.9731 18.8579C11.0247 18.8579 4.59375 25.2889 4.59375 33.2011C4.59375 41.1495 11.0247 47.5805 18.9731 47.5805C26.8854 47.5805 33.3163 41.1495 33.3163 33.2011C33.3163 25.2889 26.8854 18.8579 18.9731 18.8579Z" fill="#1168F1"/>
<path d="M45.1646 26.445C45.1646 18.5328 38.7337 12.1018 30.7853 12.1018C27.7143 12.1018 24.8963 13.0412 22.5479 14.7031C22.1866 14.956 22.0059 15.4257 22.0782 15.8592C22.1505 16.3289 22.5118 16.6902 22.9453 16.7986C30.3518 18.605 35.8795 25.2889 35.8795 33.2012C35.8795 34.7186 35.6627 36.1637 35.3014 37.5366C35.1569 38.0786 35.3376 38.6928 35.8072 39.0541C36.2408 39.4154 36.855 39.4515 37.3969 39.1986C41.9852 36.8141 45.1646 32.0089 45.1646 26.445Z" fill="#FF9900"/>
<path d="M24.1755 2.41943C17.7807 2.41943 12.5781 7.62201 12.5781 14.0169C12.5781 15.1007 12.7226 16.1485 13.0117 17.124C14.6375 16.5098 16.4078 16.1485 18.2143 16.0762C20.671 12.391 24.862 9.93427 29.631 9.93427C30.8233 9.93427 31.9794 10.0788 33.0994 10.3678C33.533 10.5123 34.0388 10.3317 34.3278 9.9704C34.6168 9.60911 34.653 9.1033 34.4362 8.70589C32.5214 4.9846 28.6194 2.41943 24.1755 2.41943Z" fill="#FF9900"/>
<path d="M30.1002 33.2012C30.1002 32.7316 30.0641 32.2257 30.0279 31.7561L28.5466 31.9367C28.5828 32.3703 28.6189 32.8038 28.6189 33.2012H30.1002ZM29.7389 30.347C29.486 29.3716 29.0886 28.4683 28.6189 27.6374L27.3183 28.3961C27.7518 29.1186 28.077 29.8774 28.2937 30.7083L29.7389 30.347ZM27.7879 26.4451C27.2099 25.6503 26.5234 24.9638 25.7647 24.3857L24.8254 25.5419C25.5118 26.0838 26.126 26.6619 26.6318 27.3483L27.7879 26.4451ZM24.5363 23.5548C23.7054 23.0851 22.8021 22.6877 21.8628 22.4348L21.4654 23.8799C22.2963 24.0967 23.055 24.4219 23.7776 24.8554L24.5363 23.5548ZM20.4176 22.1819C19.9479 22.1096 19.4421 22.0735 18.9724 22.0735V23.5548C19.406 23.5548 19.8034 23.5909 20.237 23.627L20.4176 22.1819ZM18.9724 22.0735C18.4666 22.0735 17.997 22.1096 17.4912 22.1819L17.7079 23.627C18.1054 23.5909 18.5389 23.5548 18.9724 23.5548V22.0735ZM16.0821 22.4348C15.1066 22.6877 14.2395 23.0851 13.3724 23.5548L14.1312 24.8554C14.8537 24.4219 15.6486 24.0967 16.4434 23.8799L16.0821 22.4348ZM12.1802 24.3857C11.4215 24.9638 10.6989 25.6503 10.1208 26.4451L11.3131 27.3483C11.8189 26.6619 12.397 26.0838 13.0834 25.5419L12.1802 24.3857ZM9.326 27.6374C8.82019 28.4683 8.4589 29.3716 8.206 30.347L9.61503 30.7083C9.86793 29.8774 10.1931 29.1186 10.5905 28.3961L9.326 27.6374ZM7.91698 31.7561C7.84472 32.2257 7.80859 32.7316 7.80859 33.2012H9.28987C9.28987 32.8038 9.326 32.3703 9.39825 31.9367L7.91698 31.7561ZM7.80859 33.2012C7.80859 33.707 7.84472 34.1767 7.91698 34.6825L9.39825 34.4657C9.326 34.0683 9.28987 33.6348 9.28987 33.2012H7.80859ZM8.206 36.0916C8.4589 37.067 8.82019 37.9703 9.326 38.8012L10.5905 38.0425C10.1931 37.3199 9.86793 36.5251 9.61503 35.7303L8.206 36.0916ZM10.1208 39.9935C10.6989 40.7883 11.4215 41.4748 12.1802 42.0528L13.0834 40.8967C12.397 40.3548 11.8189 39.7767 11.3131 39.0903L10.1208 39.9935ZM13.3724 42.8838C14.2395 43.3535 15.1066 43.7148 16.0821 43.9677L16.4434 42.5586C15.6486 42.3419 14.8537 42.0167 14.1312 41.5832L13.3724 42.8838ZM17.4912 44.2567C17.997 44.329 18.4666 44.3651 18.9724 44.3651V42.8838C18.5389 42.8838 18.1054 42.8477 17.7079 42.8116L17.4912 44.2567ZM18.9724 44.3651C19.4421 44.3651 19.9479 44.329 20.4176 44.2567L20.237 42.8116C19.8034 42.8477 19.406 42.8838 18.9724 42.8838V44.3651ZM21.8628 43.9677C22.8021 43.7148 23.7054 43.3535 24.5363 42.8838L23.7776 41.5832C23.055 42.0167 22.2963 42.3419 21.4654 42.5586L21.8628 43.9677ZM25.7647 42.0528C26.5234 41.4748 27.2099 40.7883 27.7879 39.9935L26.6318 39.0903C26.126 39.7767 25.5118 40.3548 24.8254 40.8967L25.7647 42.0528ZM28.6189 38.8012C29.0886 37.9703 29.486 37.067 29.7389 36.0916L28.2937 35.7303C28.077 36.5251 27.7518 37.3199 27.3183 38.0425L28.6189 38.8012ZM30.0279 34.6825C30.0641 34.1767 30.1002 33.707 30.1002 33.2012H28.6189C28.6189 33.6348 28.5828 34.0683 28.5466 34.4657L30.0279 34.6825Z" fill="white"/>
</svg>
