<svg width="50" height="50" viewBox="0 0 50 50" fill="none" xmlns="http://www.w3.org/2000/svg">
<path d="M6.26631 22.9462C5.43977 23.6361 4.33783 23.3602 3.78669 22.3941C3.23556 21.428 3.51129 20.0483 4.33783 19.3581L24.0367 4.45453C24.7254 4.04055 25.4144 4.04055 25.9652 4.45453L45.6641 19.3581C46.4907 20.048 46.7661 21.428 46.2153 22.3941C45.6641 23.3602 44.5621 23.6361 43.7356 22.9462L25.0005 8.8706L6.26532 22.9462H6.26631Z" fill="#1168F1"/>
<path fill-rule="evenodd" clip-rule="evenodd" d="M41.8684 24.4197V42.4501C41.8684 43.9412 40.6032 45.1613 39.0569 45.1613H24.2957V31.3337C24.2957 29.9779 23.1711 28.8935 21.7652 28.8935H14.7362C13.3302 28.8935 12.2057 29.9779 12.2057 31.3337V45.1613H10.9404C9.39415 45.1613 8.12891 43.9412 8.12891 42.4501V24.4197L24.9988 12.083L41.8684 24.4197ZM28.0916 33.2312H32.1683V28.8932H30.3407C29.0754 28.8932 28.0912 29.9776 28.0912 31.1977L28.0916 33.2312ZM34.1367 33.2312H38.2135V31.1977C38.2135 29.9776 37.089 28.8932 35.8237 28.8932H34.1367V33.2312ZM38.2135 34.9936H34.1367V39.1962H35.8237C37.089 39.1962 38.2135 38.2472 38.2135 36.8917V34.9936ZM32.1683 34.9936H28.0916V36.8914C28.0916 38.2472 29.0758 39.1959 30.341 39.1959H32.1687L32.1683 34.9936Z" fill="#FF9900"/>
<path fill-rule="evenodd" clip-rule="evenodd" d="M31.8246 32.9225V28.8933H34.4708V32.9225H38.2157V35.5688H34.4708V39.1964H31.8246V35.5688H28.0938V32.9225H31.8246Z" fill="#1168F1"/>
</svg>
