<svg width="32" height="32" viewBox="0 0 32 32" fill="none" xmlns="http://www.w3.org/2000/svg">
<path d="M16.0012 29.9986C16.395 29.9986 16.7613 29.8238 17.4955 29.4728L23.3857 26.6628C25.9951 25.421 27.2974 24.7977 27.2974 23.8126V11.4406M16.0012 29.9986C15.6075 29.9986 15.2412 29.8238 14.5069 29.4728L8.61677 26.6628C6.00736 25.421 4.70508 24.7977 4.70508 23.8126V11.4406M16.0012 29.9986V17.6266M27.2974 11.4406C27.2974 10.4555 25.9935 9.83381 23.3873 8.59043L17.4955 5.7789C16.7597 5.42939 16.395 5.25464 16.0012 5.25464C15.6075 5.25464 15.2412 5.42939 14.5069 5.78045L8.61677 8.59043C6.00736 9.83227 4.70508 10.4555 4.70508 11.4406M27.2974 11.4406C27.2974 12.4257 25.9935 13.0474 23.3873 14.2908L17.4955 17.1023C16.7613 17.4519 16.395 17.6266 16.0012 17.6266M4.70508 11.4406C4.70508 12.4257 6.00898 13.0474 8.61516 14.2908L14.5069 17.1023C15.2412 17.4519 15.6075 17.6266 16.0012 17.6266" stroke="white" stroke-width="1.61374" stroke-linejoin="round"/>
<path d="M30.3449 28.9227L26.0416 25.3366M16.0006 1.66846L16.0006 4.7166M1.65625 28.9227L5.95954 25.3366" stroke="white" stroke-width="1.61374" stroke-linecap="round" stroke-linejoin="round"/>
</svg>
