<svg width="32" height="32" viewBox="0 0 32 32" fill="none" xmlns="http://www.w3.org/2000/svg">
<path d="M27.6063 15.482L16.5048 4.38047C16.0607 3.93641 15.444 3.66504 14.7656 3.66504H6.13106C4.77421 3.66504 3.66406 4.77519 3.66406 6.13204V14.7665C3.66406 15.445 3.93543 16.0617 4.39183 16.5181L15.4933 27.6196C15.9374 28.0637 16.5541 28.335 17.2326 28.335C17.911 28.335 18.5277 28.0637 18.9718 27.6073L27.6063 18.9728C28.0627 18.5287 28.3341 17.912 28.3341 17.2335C28.3341 16.5551 28.0504 15.926 27.6063 15.482ZM17.2326 25.8804L6.13106 14.7665V6.13204H14.7656V6.1197L25.8671 17.2212L17.2326 25.8804Z" fill="white"/>
<path d="M9.21548 11.0662C10.2373 11.0662 11.0657 10.2378 11.0657 9.21597C11.0657 8.19411 10.2373 7.36572 9.21548 7.36572C8.19362 7.36572 7.36523 8.19411 7.36523 9.21597C7.36523 10.2378 8.19362 11.0662 9.21548 11.0662Z" fill="white"/>
</svg>
