<svg width="32" height="32" viewBox="0 0 32 32" fill="none" xmlns="http://www.w3.org/2000/svg">
<path d="M15.5345 29.28L16.8679 28.7039C19.6638 27.5041 22.0781 25.5622 23.8494 23.0885C25.6206 20.6148 26.6812 17.7036 26.9164 14.6703L27.5682 6.30442C27.5788 5.95797 27.4702 5.61836 27.2605 5.34241C27.0507 5.06645 26.7526 4.87088 26.4159 4.78838L15.5345 2L4.653 4.728C4.31646 4.81047 4.01842 5.00594 3.80869 5.28174C3.59896 5.55755 3.49023 5.89698 3.50069 6.24332L4.1525 14.6092C4.38754 17.6427 5.44813 20.554 7.21938 23.0278C8.99063 25.5016 11.405 27.4437 14.201 28.6435L15.5345 29.28Z" stroke="white" stroke-width="1.6" stroke-linecap="round" stroke-linejoin="round"/>
</svg>
